<mxfile host="app.diagrams.net" modified="2022-09-07T08:41:25.988Z" agent="5.0 (Macintosh; Intel Mac OS X 10_15_7) AppleWebKit/537.36 (KHTML, like Gecko) Chrome/103.0.0.0 Safari/537.36" etag="hBSswtNTPLREYgWRTMdj" version="20.2.8" type="github">
  <diagram id="K9pWRaJT-8Ic0y17VHCI" name="第 1 页">
    <mxGraphModel dx="1426" dy="826" grid="1" gridSize="10" guides="1" tooltips="1" connect="1" arrows="1" fold="1" page="1" pageScale="1" pageWidth="827" pageHeight="1169" math="0" shadow="0">
      <root>
        <mxCell id="0" />
        <mxCell id="1" parent="0" />
        <mxCell id="Gxc3jQeNL3H-JdKQoSbk-1" value="" style="sketch=0;html=1;dashed=0;whitespace=wrap;fillColor=#2875E2;strokeColor=#ffffff;points=[[0.005,0.63,0],[0.1,0.2,0],[0.9,0.2,0],[0.5,0,0],[0.995,0.63,0],[0.72,0.99,0],[0.5,1,0],[0.28,0.99,0]];shape=mxgraph.kubernetes.icon;prIcon=etcd" vertex="1" parent="1">
          <mxGeometry x="340" y="100" width="60" height="60" as="geometry" />
        </mxCell>
      </root>
    </mxGraphModel>
  </diagram>
</mxfile>
